<?xml version="1.0" encoding="utf-8" standalone="no"?>
<!DOCTYPE svg PUBLIC "-//W3C//DTD SVG 1.1//EN"
  "http://www.w3.org/Graphics/SVG/1.1/DTD/svg11.dtd">
<svg xmlns:xlink="http://www.w3.org/1999/xlink" width="432pt" height="432pt" viewBox="0 0 432 432" xmlns="http://www.w3.org/2000/svg" version="1.1">
 <metadata>
  <rdf:RDF xmlns:dc="http://purl.org/dc/elements/1.1/" xmlns:cc="http://creativecommons.org/ns#" xmlns:rdf="http://www.w3.org/1999/02/22-rdf-syntax-ns#">
   <cc:Work>
    <dc:type rdf:resource="http://purl.org/dc/dcmitype/StillImage"/>
    <dc:date>2023-10-30T21:31:23.094923</dc:date>
    <dc:format>image/svg+xml</dc:format>
    <dc:creator>
     <cc:Agent>
      <dc:title>Matplotlib v3.7.1, https://matplotlib.org/</dc:title>
     </cc:Agent>
    </dc:creator>
   </cc:Work>
  </rdf:RDF>
 </metadata>
 <defs>
  <style type="text/css">*{stroke-linejoin: round; stroke-linecap: butt}</style>
 </defs>
 <g id="figure_1">
  <g id="patch_1">
   <path d="M 0 432 
L 432 432 
L 432 0 
L 0 0 
z
" style="fill: #ffffff"/>
  </g>
  <g id="axes_1">
   <g id="patch_2">
    <path d="M 32.56 404.12 
L 421.2 404.12 
L 421.2 50.64 
L 32.56 50.64 
z
" style="fill: #ffffff"/>
   </g>
   <g id="PathCollection_1">
    <defs>
     <path id="mb5d3168c77" d="M 0 -3.535534 
L -3.535534 3.535534 
L 3.535534 3.535534 
z
" style="stroke: #000000"/>
    </defs>
    <g clip-path="url(#p3865075f2a)">
     <use xlink:href="#mb5d3168c77" x="79.816239" y="199.464484" style="fill: #ff0000; stroke: #000000"/>
     <use xlink:href="#mb5d3168c77" x="90.484631" y="268.913792" style="fill: #ff0000; stroke: #000000"/>
     <use xlink:href="#mb5d3168c77" x="74.037554" y="248.922777" style="fill: #ff0000; stroke: #000000"/>
     <use xlink:href="#mb5d3168c77" x="77.80257" y="264.296171" style="fill: #ff0000; stroke: #000000"/>
     <use xlink:href="#mb5d3168c77" x="72.550408" y="189.427095" style="fill: #ff0000; stroke: #000000"/>
     <use xlink:href="#mb5d3168c77" x="90.794113" y="138.74082" style="fill: #ff0000; stroke: #000000"/>
     <use xlink:href="#mb5d3168c77" x="69.404226" y="225.482241" style="fill: #ff0000; stroke: #000000"/>
     <use xlink:href="#mb5d3168c77" x="81.665839" y="214.921642" style="fill: #ff0000; stroke: #000000"/>
     <use xlink:href="#mb5d3168c77" x="75.755524" y="295.461777" style="fill: #ff0000; stroke: #000000"/>
     <use xlink:href="#mb5d3168c77" x="84.482944" y="256.571102" style="fill: #ff0000; stroke: #000000"/>
     <use xlink:href="#mb5d3168c77" x="85.529108" y="165.547113" style="fill: #ff0000; stroke: #000000"/>
     <use xlink:href="#mb5d3168c77" x="76.249608" y="220.341411" style="fill: #ff0000; stroke: #000000"/>
     <use xlink:href="#mb5d3168c77" x="82.501713" y="272.195786" style="fill: #ff0000; stroke: #000000"/>
     <use xlink:href="#mb5d3168c77" x="58.426352" y="286.205905" style="fill: #ff0000; stroke: #000000"/>
     <use xlink:href="#mb5d3168c77" x="83.646131" y="116.423873" style="fill: #ff0000; stroke: #000000"/>
     <use xlink:href="#mb5d3168c77" x="79.960713" y="66.707273" style="fill: #ff0000; stroke: #000000"/>
     <use xlink:href="#mb5d3168c77" x="83.132452" y="139.075873" style="fill: #ff0000; stroke: #000000"/>
     <use xlink:href="#mb5d3168c77" x="84.133334" y="198.934256" style="fill: #ff0000; stroke: #000000"/>
     <use xlink:href="#mb5d3168c77" x="101.074495" y="143.804905" style="fill: #ff0000; stroke: #000000"/>
     <use xlink:href="#mb5d3168c77" x="75.248726" y="160.483027" style="fill: #ff0000; stroke: #000000"/>
     <use xlink:href="#mb5d3168c77" x="100.159962" y="203.747052" style="fill: #ff0000; stroke: #000000"/>
     <use xlink:href="#mb5d3168c77" x="83.165829" y="172.741955" style="fill: #ff0000; stroke: #000000"/>
     <use xlink:href="#mb5d3168c77" x="50.225455" y="200.769212" style="fill: #ff0000; stroke: #000000"/>
     <use xlink:href="#mb5d3168c77" x="105.713785" y="223.200821" style="fill: #ff0000; stroke: #000000"/>
     <use xlink:href="#mb5d3168c77" x="81.995854" y="220.090121" style="fill: #ff0000; stroke: #000000"/>
     <use xlink:href="#mb5d3168c77" x="97.981285" y="265.9945" style="fill: #ff0000; stroke: #000000"/>
     <use xlink:href="#mb5d3168c77" x="92.215444" y="213.777423" style="fill: #ff0000; stroke: #000000"/>
     <use xlink:href="#mb5d3168c77" x="85.397477" y="196.628955" style="fill: #ff0000; stroke: #000000"/>
     <use xlink:href="#mb5d3168c77" x="87.08207" y="209.501874" style="fill: #ff0000; stroke: #000000"/>
     <use xlink:href="#mb5d3168c77" x="79.783801" y="248.671487" style="fill: #ff0000; stroke: #000000"/>
     <use xlink:href="#mb5d3168c77" x="87.049631" y="258.708876" style="fill: #ff0000; stroke: #000000"/>
     <use xlink:href="#mb5d3168c77" x="104.963321" y="202.854123" style="fill: #ff0000; stroke: #000000"/>
     <use xlink:href="#mb5d3168c77" x="59.480336" y="120.424252" style="fill: #ff0000; stroke: #000000"/>
     <use xlink:href="#mb5d3168c77" x="69.279477" y="98.933334" style="fill: #ff0000; stroke: #000000"/>
     <use xlink:href="#mb5d3168c77" x="88.800039" y="256.040874" style="fill: #ff0000; stroke: #000000"/>
     <use xlink:href="#mb5d3168c77" x="83.119608" y="240.751242" style="fill: #ff0000; stroke: #000000"/>
     <use xlink:href="#mb5d3168c77" x="92.564116" y="188.541184" style="fill: #ff0000; stroke: #000000"/>
     <use xlink:href="#mb5d3168c77" x="64.56749" y="192.709089" style="fill: #ff0000; stroke: #000000"/>
     <use xlink:href="#mb5d3168c77" x="70.240101" y="282.756385" style="fill: #ff0000; stroke: #000000"/>
     <use xlink:href="#mb5d3168c77" x="85.331662" y="212.169876" style="fill: #ff0000; stroke: #000000"/>
     <use xlink:href="#mb5d3168c77" x="78.552095" y="201.769786" style="fill: #ff0000; stroke: #000000"/>
     <use xlink:href="#mb5d3168c77" x="103.423073" y="368.998478" style="fill: #ff0000; stroke: #000000"/>
     <use xlink:href="#mb5d3168c77" x="63.040085" y="257.178075" style="fill: #ff0000; stroke: #000000"/>
     <use xlink:href="#mb5d3168c77" x="97.249626" y="199.927812" style="fill: #ff0000; stroke: #000000"/>
     <use xlink:href="#mb5d3168c77" x="87.227482" y="159.617747" style="fill: #ff0000; stroke: #000000"/>
     <use xlink:href="#mb5d3168c77" x="91.135903" y="271.13533" style="fill: #ff0000; stroke: #000000"/>
     <use xlink:href="#mb5d3168c77" x="72.847046" y="160.929492" style="fill: #ff0000; stroke: #000000"/>
     <use xlink:href="#mb5d3168c77" x="72.287147" y="251.59078" style="fill: #ff0000; stroke: #000000"/>
     <use xlink:href="#mb5d3168c77" x="81.863285" y="168.298879" style="fill: #ff0000; stroke: #000000"/>
     <use xlink:href="#mb5d3168c77" x="83.350431" y="227.794561" style="fill: #ff0000; stroke: #000000"/>
    </g>
   </g>
   <g id="PathCollection_2">
    <defs>
     <path id="m049296efaf" d="M -3.535534 3.535534 
L 3.535534 3.535534 
L 3.535534 -3.535534 
L -3.535534 -3.535534 
z
" style="stroke: #000000"/>
    </defs>
    <g clip-path="url(#p3865075f2a)">
     <use xlink:href="#m049296efaf" x="275.280746" y="176.421476" style="fill: #008000; stroke: #000000"/>
     <use xlink:href="#m049296efaf" x="253.772072" y="192.56937" style="fill: #008000; stroke: #000000"/>
     <use xlink:href="#m049296efaf" x="283.362856" y="191.264642" style="fill: #008000; stroke: #000000"/>
     <use xlink:href="#m049296efaf" x="254.654167" y="181.834226" style="fill: #008000; stroke: #000000"/>
     <use xlink:href="#m049296efaf" x="262.137038" y="197.717218" style="fill: #008000; stroke: #000000"/>
     <use xlink:href="#m049296efaf" x="254.140488" y="204.486226" style="fill: #008000; stroke: #000000"/>
     <use xlink:href="#m049296efaf" x="262.071223" y="213.25814" style="fill: #008000; stroke: #000000"/>
     <use xlink:href="#m049296efaf" x="284.264546" y="232.997865" style="fill: #008000; stroke: #000000"/>
     <use xlink:href="#m049296efaf" x="290.180823" y="208.413111" style="fill: #008000; stroke: #000000"/>
     <use xlink:href="#m049296efaf" x="236.225859" y="177.467895" style="fill: #008000; stroke: #000000"/>
     <use xlink:href="#m049296efaf" x="272.200379" y="196.935701" style="fill: #008000; stroke: #000000"/>
     <use xlink:href="#m049296efaf" x="318.408421" y="175.973253" style="fill: #008000; stroke: #000000"/>
     <use xlink:href="#m049296efaf" x="339.351233" y="194.531266" style="fill: #008000; stroke: #000000"/>
     <use xlink:href="#m049296efaf" x="294.927126" y="231.176522" style="fill: #008000; stroke: #000000"/>
     <use xlink:href="#m049296efaf" x="319.757974" y="210.595397" style="fill: #008000; stroke: #000000"/>
     <use xlink:href="#m049296efaf" x="371.088256" y="180.186094" style="fill: #008000; stroke: #000000"/>
     <use xlink:href="#m049296efaf" x="344.993263" y="203.07252" style="fill: #008000; stroke: #000000"/>
     <use xlink:href="#m049296efaf" x="327.821279" y="271.158553" style="fill: #008000; stroke: #000000"/>
     <use xlink:href="#m049296efaf" x="342.51622" y="112.756131" style="fill: #008000; stroke: #000000"/>
     <use xlink:href="#m049296efaf" x="290.515862" y="186.663885" style="fill: #008000; stroke: #000000"/>
     <use xlink:href="#m049296efaf" x="304.363813" y="253.724128" style="fill: #008000; stroke: #000000"/>
     <use xlink:href="#m049296efaf" x="320.692103" y="203.121617" style="fill: #008000; stroke: #000000"/>
     <use xlink:href="#m049296efaf" x="303.632154" y="187.657441" style="fill: #008000; stroke: #000000"/>
     <use xlink:href="#m049296efaf" x="296.743349" y="212.967598" style="fill: #008000; stroke: #000000"/>
     <use xlink:href="#m049296efaf" x="352.186527" y="74.507095" style="fill: #008000; stroke: #000000"/>
     <use xlink:href="#m049296efaf" x="403.534545" y="227.279203" style="fill: #008000; stroke: #000000"/>
     <use xlink:href="#m049296efaf" x="329.622931" y="173.563558" style="fill: #008000; stroke: #000000"/>
     <use xlink:href="#m049296efaf" x="379.552414" y="203.459103" style="fill: #008000; stroke: #000000"/>
     <use xlink:href="#m049296efaf" x="310.057087" y="167.338391" style="fill: #008000; stroke: #000000"/>
     <use xlink:href="#m049296efaf" x="324.781171" y="167.70811" style="fill: #008000; stroke: #000000"/>
     <use xlink:href="#m049296efaf" x="270.587564" y="224.477241" style="fill: #008000; stroke: #000000"/>
     <use xlink:href="#m049296efaf" x="315.144241" y="239.623228" style="fill: #008000; stroke: #000000"/>
     <use xlink:href="#m049296efaf" x="319.516166" y="194.514403" style="fill: #008000; stroke: #000000"/>
     <use xlink:href="#m049296efaf" x="352.745358" y="212.747208" style="fill: #008000; stroke: #000000"/>
     <use xlink:href="#m049296efaf" x="345.137738" y="70.315309" style="fill: #008000; stroke: #000000"/>
     <use xlink:href="#m049296efaf" x="319.461336" y="239.093" style="fill: #008000; stroke: #000000"/>
     <use xlink:href="#m049296efaf" x="373.811192" y="176.792688" style="fill: #008000; stroke: #000000"/>
     <use xlink:href="#m049296efaf" x="302.829657" y="164.049379" style="fill: #008000; stroke: #000000"/>
     <use xlink:href="#m049296efaf" x="289.477518" y="202.930209" style="fill: #008000; stroke: #000000"/>
     <use xlink:href="#m049296efaf" x="318.842502" y="187.664459" style="fill: #008000; stroke: #000000"/>
     <use xlink:href="#m049296efaf" x="328.292972" y="191.409781" style="fill: #008000; stroke: #000000"/>
     <use xlink:href="#m049296efaf" x="321.730446" y="186.855293" style="fill: #008000; stroke: #000000"/>
     <use xlink:href="#m049296efaf" x="329.787938" y="176.147798" style="fill: #008000; stroke: #000000"/>
     <use xlink:href="#m049296efaf" x="327.325467" y="165.217479" style="fill: #008000; stroke: #000000"/>
     <use xlink:href="#m049296efaf" x="319.914223" y="205.064217" style="fill: #008000; stroke: #000000"/>
     <use xlink:href="#m049296efaf" x="299.631292" y="212.158432" style="fill: #008000; stroke: #000000"/>
     <use xlink:href="#m049296efaf" x="291.015908" y="167.498899" style="fill: #008000; stroke: #000000"/>
    </g>
   </g>
   <g id="PathCollection_3">
    <defs>
     <path id="m7c3e93bbbe" d="M 0 -3.535534 
L -3.362493 -1.09254 
L -2.078135 2.860307 
L 2.078135 2.860307 
L 3.362493 -1.09254 
z
" style="stroke: #000000"/>
    </defs>
    <g clip-path="url(#p3865075f2a)">
     <use xlink:href="#m7c3e93bbbe" x="234.968467" y="333.916932" style="fill: #ffa500; stroke: #000000"/>
     <use xlink:href="#m7c3e93bbbe" x="273.753341" y="240.890462" style="fill: #ffa500; stroke: #000000"/>
     <use xlink:href="#m7c3e93bbbe" x="233.877151" y="264.048808" style="fill: #ffa500; stroke: #000000"/>
     <use xlink:href="#m7c3e93bbbe" x="183.014329" y="339.815399" style="fill: #ffa500; stroke: #000000"/>
     <use xlink:href="#m7c3e93bbbe" x="265.184966" y="226.409996" style="fill: #ffa500; stroke: #000000"/>
     <use xlink:href="#m7c3e93bbbe" x="211.972647" y="290.569144" style="fill: #ffa500; stroke: #000000"/>
     <use xlink:href="#m7c3e93bbbe" x="204.911013" y="388.052727" style="fill: #ffa500; stroke: #000000"/>
     <use xlink:href="#m7c3e93bbbe" x="236.896726" y="232.1578" style="fill: #ffa500; stroke: #000000"/>
     <use xlink:href="#m7c3e93bbbe" x="243.946305" y="334.537941" style="fill: #ffa500; stroke: #000000"/>
     <use xlink:href="#m7c3e93bbbe" x="253.088362" y="239.554835" style="fill: #ffa500; stroke: #000000"/>
     <use xlink:href="#m7c3e93bbbe" x="209.372582" y="254.765288" style="fill: #ffa500; stroke: #000000"/>
     <use xlink:href="#m7c3e93bbbe" x="231.645503" y="240.161808" style="fill: #ffa500; stroke: #000000"/>
     <use xlink:href="#m7c3e93bbbe" x="220.530036" y="276.011934" style="fill: #ffa500; stroke: #000000"/>
     <use xlink:href="#m7c3e93bbbe" x="282.440503" y="325.964454" style="fill: #ffa500; stroke: #000000"/>
     <use xlink:href="#m7c3e93bbbe" x="220.884669" y="306.731075" style="fill: #ffa500; stroke: #000000"/>
     <use xlink:href="#m7c3e93bbbe" x="238.963367" y="253.460561" style="fill: #ffa500; stroke: #000000"/>
     <use xlink:href="#m7c3e93bbbe" x="282.967964" y="284.510169" style="fill: #ffa500; stroke: #000000"/>
     <use xlink:href="#m7c3e93bbbe" x="248.054179" y="253.404446" style="fill: #ffa500; stroke: #000000"/>
     <use xlink:href="#m7c3e93bbbe" x="252.107074" y="232.164818" style="fill: #ffa500; stroke: #000000"/>
     <use xlink:href="#m7c3e93bbbe" x="249.908803" y="241.943899" style="fill: #ffa500; stroke: #000000"/>
     <use xlink:href="#m7c3e93bbbe" x="208.971728" y="292.055434" style="fill: #ffa500; stroke: #000000"/>
     <use xlink:href="#m7c3e93bbbe" x="218.903439" y="322.355759" style="fill: #ffa500; stroke: #000000"/>
     <use xlink:href="#m7c3e93bbbe" x="212.670928" y="322.96975" style="fill: #ffa500; stroke: #000000"/>
     <use xlink:href="#m7c3e93bbbe" x="225.333395" y="275.119005" style="fill: #ffa500; stroke: #000000"/>
     <use xlink:href="#m7c3e93bbbe" x="272.918405" y="266.489402" style="fill: #ffa500; stroke: #000000"/>
     <use xlink:href="#m7c3e93bbbe" x="224.313857" y="245.66534" style="fill: #ffa500; stroke: #000000"/>
     <use xlink:href="#m7c3e93bbbe" x="271.956713" y="311.567752" style="fill: #ffa500; stroke: #000000"/>
     <use xlink:href="#m7c3e93bbbe" x="215.349652" y="241.557316" style="fill: #ffa500; stroke: #000000"/>
     <use xlink:href="#m7c3e93bbbe" x="227.768452" y="308.338622" style="fill: #ffa500; stroke: #000000"/>
     <use xlink:href="#m7c3e93bbbe" x="227.51301" y="295.744641" style="fill: #ffa500; stroke: #000000"/>
     <use xlink:href="#m7c3e93bbbe" x="247.572938" y="226.849443" style="fill: #ffa500; stroke: #000000"/>
     <use xlink:href="#m7c3e93bbbe" x="230.848818" y="287.824397" style="fill: #ffa500; stroke: #000000"/>
     <use xlink:href="#m7c3e93bbbe" x="190.28016" y="349.852788" style="fill: #ffa500; stroke: #000000"/>
     <use xlink:href="#m7c3e93bbbe" x="228.06509" y="279.841019" style="fill: #ffa500; stroke: #000000"/>
     <use xlink:href="#m7c3e93bbbe" x="216.613795" y="239.252015" style="fill: #ffa500; stroke: #000000"/>
     <use xlink:href="#m7c3e93bbbe" x="224.530898" y="251.510942" style="fill: #ffa500; stroke: #000000"/>
     <use xlink:href="#m7c3e93bbbe" x="244.775428" y="237.66835" style="fill: #ffa500; stroke: #000000"/>
     <use xlink:href="#m7c3e93bbbe" x="185.316816" y="321.243774" style="fill: #ffa500; stroke: #000000"/>
     <use xlink:href="#m7c3e93bbbe" x="226.21549" y="264.383861" style="fill: #ffa500; stroke: #000000"/>
     <use xlink:href="#m7c3e93bbbe" x="278.538044" y="270.402251" style="fill: #ffa500; stroke: #000000"/>
     <use xlink:href="#m7c3e93bbbe" x="232.61897" y="322.30949" style="fill: #ffa500; stroke: #000000"/>
     <use xlink:href="#m7c3e93bbbe" x="284.473916" y="298.285862" style="fill: #ffa500; stroke: #000000"/>
     <use xlink:href="#m7c3e93bbbe" x="296.523511" y="254.961956" style="fill: #ffa500; stroke: #000000"/>
     <use xlink:href="#m7c3e93bbbe" x="284.685933" y="331.049169" style="fill: #ffa500; stroke: #000000"/>
     <use xlink:href="#m7c3e93bbbe" x="268.092655" y="262.753926" style="fill: #ffa500; stroke: #000000"/>
     <use xlink:href="#m7c3e93bbbe" x="288.719233" y="257.341175" style="fill: #ffa500; stroke: #000000"/>
     <use xlink:href="#m7c3e93bbbe" x="279.537987" y="247.387549" style="fill: #ffa500; stroke: #000000"/>
     <use xlink:href="#m7c3e93bbbe" x="275.998772" y="245.975177" style="fill: #ffa500; stroke: #000000"/>
     <use xlink:href="#m7c3e93bbbe" x="281.127123" y="277.168431" style="fill: #ffa500; stroke: #000000"/>
     <use xlink:href="#m7c3e93bbbe" x="265.006326" y="227.312771" style="fill: #ffa500; stroke: #000000"/>
     <use xlink:href="#m7c3e93bbbe" x="278.538044" y="270.402251" style="fill: #ffa500; stroke: #000000"/>
     <use xlink:href="#m7c3e93bbbe" x="302.151759" y="282.305495" style="fill: #ffa500; stroke: #000000"/>
     <use xlink:href="#m7c3e93bbbe" x="267.086749" y="229.813247" style="fill: #ffa500; stroke: #000000"/>
    </g>
   </g>
   <g id="matplotlib.axis_1">
    <g id="xtick_1">
     <g id="line2d_1">
      <path d="M 37.123476 404.12 
L 37.123476 50.64 
" clip-path="url(#p3865075f2a)" style="fill: none; stroke: #b0b0b0; stroke-width: 0.8; stroke-linecap: square"/>
     </g>
     <g id="line2d_2">
      <defs>
       <path id="m2f47677f74" d="M 0 0 
L 0 3.5 
" style="stroke: #000000; stroke-width: 0.8"/>
      </defs>
      <g>
       <use xlink:href="#m2f47677f74" x="37.123476" y="404.12" style="stroke: #000000; stroke-width: 0.8"/>
      </g>
     </g>
     <g id="text_1">
      <!-- −3 -->
      <g transform="translate(29.752382 418.718437) scale(0.1 -0.1)">
       <defs>
        <path id="DejaVuSans-2212" d="M 678 2272 
L 4684 2272 
L 4684 1741 
L 678 1741 
L 678 2272 
z
" transform="scale(0.015625)"/>
        <path id="DejaVuSans-33" d="M 2597 2516 
Q 3050 2419 3304 2112 
Q 3559 1806 3559 1356 
Q 3559 666 3084 287 
Q 2609 -91 1734 -91 
Q 1441 -91 1130 -33 
Q 819 25 488 141 
L 488 750 
Q 750 597 1062 519 
Q 1375 441 1716 441 
Q 2309 441 2620 675 
Q 2931 909 2931 1356 
Q 2931 1769 2642 2001 
Q 2353 2234 1838 2234 
L 1294 2234 
L 1294 2753 
L 1863 2753 
Q 2328 2753 2575 2939 
Q 2822 3125 2822 3475 
Q 2822 3834 2567 4026 
Q 2313 4219 1838 4219 
Q 1578 4219 1281 4162 
Q 984 4106 628 3988 
L 628 4550 
Q 988 4650 1302 4700 
Q 1616 4750 1894 4750 
Q 2613 4750 3031 4423 
Q 3450 4097 3450 3541 
Q 3450 3153 3228 2886 
Q 3006 2619 2597 2516 
z
" transform="scale(0.015625)"/>
       </defs>
       <use xlink:href="#DejaVuSans-2212"/>
       <use xlink:href="#DejaVuSans-33" x="83.789062"/>
      </g>
     </g>
    </g>
    <g id="xtick_2">
     <g id="line2d_3">
      <path d="M 95.185391 404.12 
L 95.185391 50.64 
" clip-path="url(#p3865075f2a)" style="fill: none; stroke: #b0b0b0; stroke-width: 0.8; stroke-linecap: square"/>
     </g>
     <g id="line2d_4">
      <g>
       <use xlink:href="#m2f47677f74" x="95.185391" y="404.12" style="stroke: #000000; stroke-width: 0.8"/>
      </g>
     </g>
     <g id="text_2">
      <!-- −2 -->
      <g transform="translate(87.814297 418.718437) scale(0.1 -0.1)">
       <defs>
        <path id="DejaVuSans-32" d="M 1228 531 
L 3431 531 
L 3431 0 
L 469 0 
L 469 531 
Q 828 903 1448 1529 
Q 2069 2156 2228 2338 
Q 2531 2678 2651 2914 
Q 2772 3150 2772 3378 
Q 2772 3750 2511 3984 
Q 2250 4219 1831 4219 
Q 1534 4219 1204 4116 
Q 875 4013 500 3803 
L 500 4441 
Q 881 4594 1212 4672 
Q 1544 4750 1819 4750 
Q 2544 4750 2975 4387 
Q 3406 4025 3406 3419 
Q 3406 3131 3298 2873 
Q 3191 2616 2906 2266 
Q 2828 2175 2409 1742 
Q 1991 1309 1228 531 
z
" transform="scale(0.015625)"/>
       </defs>
       <use xlink:href="#DejaVuSans-2212"/>
       <use xlink:href="#DejaVuSans-32" x="83.789062"/>
      </g>
     </g>
    </g>
    <g id="xtick_3">
     <g id="line2d_5">
      <path d="M 153.247306 404.12 
L 153.247306 50.64 
" clip-path="url(#p3865075f2a)" style="fill: none; stroke: #b0b0b0; stroke-width: 0.8; stroke-linecap: square"/>
     </g>
     <g id="line2d_6">
      <g>
       <use xlink:href="#m2f47677f74" x="153.247306" y="404.12" style="stroke: #000000; stroke-width: 0.8"/>
      </g>
     </g>
     <g id="text_3">
      <!-- −1 -->
      <g transform="translate(145.876212 418.718437) scale(0.1 -0.1)">
       <defs>
        <path id="DejaVuSans-31" d="M 794 531 
L 1825 531 
L 1825 4091 
L 703 3866 
L 703 4441 
L 1819 4666 
L 2450 4666 
L 2450 531 
L 3481 531 
L 3481 0 
L 794 0 
L 794 531 
z
" transform="scale(0.015625)"/>
       </defs>
       <use xlink:href="#DejaVuSans-2212"/>
       <use xlink:href="#DejaVuSans-31" x="83.789062"/>
      </g>
     </g>
    </g>
    <g id="xtick_4">
     <g id="line2d_7">
      <path d="M 211.30922 404.12 
L 211.30922 50.64 
" clip-path="url(#p3865075f2a)" style="fill: none; stroke: #b0b0b0; stroke-width: 0.8; stroke-linecap: square"/>
     </g>
     <g id="line2d_8">
      <g>
       <use xlink:href="#m2f47677f74" x="211.30922" y="404.12" style="stroke: #000000; stroke-width: 0.8"/>
      </g>
     </g>
     <g id="text_4">
      <!-- 0 -->
      <g transform="translate(208.12797 418.718437) scale(0.1 -0.1)">
       <defs>
        <path id="DejaVuSans-30" d="M 2034 4250 
Q 1547 4250 1301 3770 
Q 1056 3291 1056 2328 
Q 1056 1369 1301 889 
Q 1547 409 2034 409 
Q 2525 409 2770 889 
Q 3016 1369 3016 2328 
Q 3016 3291 2770 3770 
Q 2525 4250 2034 4250 
z
M 2034 4750 
Q 2819 4750 3233 4129 
Q 3647 3509 3647 2328 
Q 3647 1150 3233 529 
Q 2819 -91 2034 -91 
Q 1250 -91 836 529 
Q 422 1150 422 2328 
Q 422 3509 836 4129 
Q 1250 4750 2034 4750 
z
" transform="scale(0.015625)"/>
       </defs>
       <use xlink:href="#DejaVuSans-30"/>
      </g>
     </g>
    </g>
    <g id="xtick_5">
     <g id="line2d_9">
      <path d="M 269.371135 404.12 
L 269.371135 50.64 
" clip-path="url(#p3865075f2a)" style="fill: none; stroke: #b0b0b0; stroke-width: 0.8; stroke-linecap: square"/>
     </g>
     <g id="line2d_10">
      <g>
       <use xlink:href="#m2f47677f74" x="269.371135" y="404.12" style="stroke: #000000; stroke-width: 0.8"/>
      </g>
     </g>
     <g id="text_5">
      <!-- 1 -->
      <g transform="translate(266.189885 418.718437) scale(0.1 -0.1)">
       <use xlink:href="#DejaVuSans-31"/>
      </g>
     </g>
    </g>
    <g id="xtick_6">
     <g id="line2d_11">
      <path d="M 327.43305 404.12 
L 327.43305 50.64 
" clip-path="url(#p3865075f2a)" style="fill: none; stroke: #b0b0b0; stroke-width: 0.8; stroke-linecap: square"/>
     </g>
     <g id="line2d_12">
      <g>
       <use xlink:href="#m2f47677f74" x="327.43305" y="404.12" style="stroke: #000000; stroke-width: 0.8"/>
      </g>
     </g>
     <g id="text_6">
      <!-- 2 -->
      <g transform="translate(324.2518 418.718437) scale(0.1 -0.1)">
       <use xlink:href="#DejaVuSans-32"/>
      </g>
     </g>
    </g>
    <g id="xtick_7">
     <g id="line2d_13">
      <path d="M 385.494965 404.12 
L 385.494965 50.64 
" clip-path="url(#p3865075f2a)" style="fill: none; stroke: #b0b0b0; stroke-width: 0.8; stroke-linecap: square"/>
     </g>
     <g id="line2d_14">
      <g>
       <use xlink:href="#m2f47677f74" x="385.494965" y="404.12" style="stroke: #000000; stroke-width: 0.8"/>
      </g>
     </g>
     <g id="text_7">
      <!-- 3 -->
      <g transform="translate(382.313715 418.718437) scale(0.1 -0.1)">
       <use xlink:href="#DejaVuSans-33"/>
      </g>
     </g>
    </g>
   </g>
   <g id="matplotlib.axis_2">
    <g id="ytick_1">
     <g id="line2d_15">
      <path d="M 32.56 348.695187 
L 421.2 348.695187 
" clip-path="url(#p3865075f2a)" style="fill: none; stroke: #b0b0b0; stroke-width: 0.8; stroke-linecap: square"/>
     </g>
     <g id="line2d_16">
      <defs>
       <path id="mf74094b4bb" d="M 0 0 
L -3.5 0 
" style="stroke: #000000; stroke-width: 0.8"/>
      </defs>
      <g>
       <use xlink:href="#mf74094b4bb" x="32.56" y="348.695187" style="stroke: #000000; stroke-width: 0.8"/>
      </g>
     </g>
     <g id="text_8">
      <!-- −2 -->
      <g transform="translate(10.817813 352.494406) scale(0.1 -0.1)">
       <use xlink:href="#DejaVuSans-2212"/>
       <use xlink:href="#DejaVuSans-32" x="83.789062"/>
      </g>
     </g>
    </g>
    <g id="ytick_2">
     <g id="line2d_17">
      <path d="M 32.56 288.522162 
L 421.2 288.522162 
" clip-path="url(#p3865075f2a)" style="fill: none; stroke: #b0b0b0; stroke-width: 0.8; stroke-linecap: square"/>
     </g>
     <g id="line2d_18">
      <g>
       <use xlink:href="#mf74094b4bb" x="32.56" y="288.522162" style="stroke: #000000; stroke-width: 0.8"/>
      </g>
     </g>
     <g id="text_9">
      <!-- −1 -->
      <g transform="translate(10.817813 292.321381) scale(0.1 -0.1)">
       <use xlink:href="#DejaVuSans-2212"/>
       <use xlink:href="#DejaVuSans-31" x="83.789062"/>
      </g>
     </g>
    </g>
    <g id="ytick_3">
     <g id="line2d_19">
      <path d="M 32.56 228.349137 
L 421.2 228.349137 
" clip-path="url(#p3865075f2a)" style="fill: none; stroke: #b0b0b0; stroke-width: 0.8; stroke-linecap: square"/>
     </g>
     <g id="line2d_20">
      <g>
       <use xlink:href="#mf74094b4bb" x="32.56" y="228.349137" style="stroke: #000000; stroke-width: 0.8"/>
      </g>
     </g>
     <g id="text_10">
      <!-- 0 -->
      <g transform="translate(19.1975 232.148355) scale(0.1 -0.1)">
       <use xlink:href="#DejaVuSans-30"/>
      </g>
     </g>
    </g>
    <g id="ytick_4">
     <g id="line2d_21">
      <path d="M 32.56 168.176112 
L 421.2 168.176112 
" clip-path="url(#p3865075f2a)" style="fill: none; stroke: #b0b0b0; stroke-width: 0.8; stroke-linecap: square"/>
     </g>
     <g id="line2d_22">
      <g>
       <use xlink:href="#mf74094b4bb" x="32.56" y="168.176112" style="stroke: #000000; stroke-width: 0.8"/>
      </g>
     </g>
     <g id="text_11">
      <!-- 1 -->
      <g transform="translate(19.1975 171.97533) scale(0.1 -0.1)">
       <use xlink:href="#DejaVuSans-31"/>
      </g>
     </g>
    </g>
    <g id="ytick_5">
     <g id="line2d_23">
      <path d="M 32.56 108.003086 
L 421.2 108.003086 
" clip-path="url(#p3865075f2a)" style="fill: none; stroke: #b0b0b0; stroke-width: 0.8; stroke-linecap: square"/>
     </g>
     <g id="line2d_24">
      <g>
       <use xlink:href="#mf74094b4bb" x="32.56" y="108.003086" style="stroke: #000000; stroke-width: 0.8"/>
      </g>
     </g>
     <g id="text_12">
      <!-- 2 -->
      <g transform="translate(19.1975 111.802305) scale(0.1 -0.1)">
       <use xlink:href="#DejaVuSans-32"/>
      </g>
     </g>
    </g>
   </g>
   <g id="patch_3">
    <path d="M 32.56 404.12 
L 32.56 50.64 
" style="fill: none; stroke: #000000; stroke-width: 0.8; stroke-linejoin: miter; stroke-linecap: square"/>
   </g>
   <g id="patch_4">
    <path d="M 421.2 404.12 
L 421.2 50.64 
" style="fill: none; stroke: #000000; stroke-width: 0.8; stroke-linejoin: miter; stroke-linecap: square"/>
   </g>
   <g id="patch_5">
    <path d="M 32.56 404.12 
L 421.2 404.12 
" style="fill: none; stroke: #000000; stroke-width: 0.8; stroke-linejoin: miter; stroke-linecap: square"/>
   </g>
   <g id="patch_6">
    <path d="M 32.56 50.64 
L 421.2 50.64 
" style="fill: none; stroke: #000000; stroke-width: 0.8; stroke-linejoin: miter; stroke-linecap: square"/>
   </g>
   <g id="text_13">
    <!-- Raw data -->
    <g transform="translate(198.705312 44.64) scale(0.12 -0.12)">
     <defs>
      <path id="DejaVuSans-Oblique-52" d="M 1613 4147 
L 1294 2491 
L 2106 2491 
Q 2584 2491 2879 2755 
Q 3175 3019 3175 3444 
Q 3175 3784 2976 3965 
Q 2778 4147 2406 4147 
L 1613 4147 
z
M 2772 2241 
Q 2972 2194 3105 2009 
Q 3238 1825 3413 1275 
L 3809 0 
L 3144 0 
L 2778 1197 
Q 2638 1659 2453 1815 
Q 2269 1972 1888 1972 
L 1191 1972 
L 806 0 
L 172 0 
L 1081 4666 
L 2503 4666 
Q 3150 4666 3495 4373 
Q 3841 4081 3841 3531 
Q 3841 3044 3547 2687 
Q 3253 2331 2772 2241 
z
" transform="scale(0.015625)"/>
      <path id="DejaVuSans-Oblique-61" d="M 3438 1997 
L 3047 0 
L 2472 0 
L 2578 531 
Q 2325 219 2001 64 
Q 1678 -91 1281 -91 
Q 834 -91 548 182 
Q 263 456 263 884 
Q 263 1497 752 1853 
Q 1241 2209 2100 2209 
L 2900 2209 
L 2931 2363 
Q 2938 2388 2941 2417 
Q 2944 2447 2944 2509 
Q 2944 2788 2717 2942 
Q 2491 3097 2081 3097 
Q 1800 3097 1504 3025 
Q 1209 2953 897 2809 
L 997 3341 
Q 1322 3463 1633 3523 
Q 1944 3584 2234 3584 
Q 2853 3584 3176 3315 
Q 3500 3047 3500 2534 
Q 3500 2431 3484 2292 
Q 3469 2153 3438 1997 
z
M 2816 1759 
L 2241 1759 
Q 1534 1759 1195 1570 
Q 856 1381 856 984 
Q 856 709 1029 553 
Q 1203 397 1509 397 
Q 1978 397 2328 733 
Q 2678 1069 2791 1631 
L 2816 1759 
z
" transform="scale(0.015625)"/>
      <path id="DejaVuSans-Oblique-77" d="M 544 3500 
L 1113 3500 
L 1259 684 
L 2566 3500 
L 3231 3500 
L 3425 684 
L 4666 3500 
L 5241 3500 
L 3641 0 
L 2969 0 
L 2797 2900 
L 1459 0 
L 781 0 
L 544 3500 
z
" transform="scale(0.015625)"/>
      <path id="DejaVuSans-Oblique-20" transform="scale(0.015625)"/>
      <path id="DejaVuSans-Oblique-64" d="M 2675 525 
Q 2444 222 2128 65 
Q 1813 -91 1428 -91 
Q 903 -91 598 267 
Q 294 625 294 1247 
Q 294 1766 478 2236 
Q 663 2706 1013 3078 
Q 1244 3325 1534 3454 
Q 1825 3584 2144 3584 
Q 2481 3584 2739 3421 
Q 2997 3259 3138 2956 
L 3513 4863 
L 4091 4863 
L 3144 0 
L 2566 0 
L 2675 525 
z
M 891 1350 
Q 891 897 1095 644 
Q 1300 391 1663 391 
Q 1931 391 2161 520 
Q 2391 650 2566 903 
Q 2750 1166 2856 1509 
Q 2963 1853 2963 2188 
Q 2963 2622 2758 2865 
Q 2553 3109 2194 3109 
Q 1922 3109 1687 2981 
Q 1453 2853 1288 2613 
Q 1106 2353 998 2009 
Q 891 1666 891 1350 
z
" transform="scale(0.015625)"/>
      <path id="DejaVuSans-Oblique-74" d="M 2706 3500 
L 2619 3053 
L 1472 3053 
L 1100 1153 
Q 1081 1047 1072 975 
Q 1063 903 1063 863 
Q 1063 663 1183 572 
Q 1303 481 1569 481 
L 2150 481 
L 2053 0 
L 1503 0 
Q 991 0 739 200 
Q 488 400 488 806 
Q 488 878 497 964 
Q 506 1050 525 1153 
L 897 3053 
L 409 3053 
L 500 3500 
L 978 3500 
L 1172 4494 
L 1747 4494 
L 1556 3500 
L 2706 3500 
z
" transform="scale(0.015625)"/>
     </defs>
     <use xlink:href="#DejaVuSans-Oblique-52"/>
     <use xlink:href="#DejaVuSans-Oblique-61" x="69.482422"/>
     <use xlink:href="#DejaVuSans-Oblique-77" x="130.761719"/>
     <use xlink:href="#DejaVuSans-Oblique-20" x="212.548828"/>
     <use xlink:href="#DejaVuSans-Oblique-64" x="244.335938"/>
     <use xlink:href="#DejaVuSans-Oblique-61" x="307.8125"/>
     <use xlink:href="#DejaVuSans-Oblique-74" x="369.091797"/>
     <use xlink:href="#DejaVuSans-Oblique-61" x="408.300781"/>
    </g>
   </g>
   <g id="legend_1">
    <g id="patch_7">
     <path d="M 337.167188 399.12 
L 414.2 399.12 
Q 416.2 399.12 416.2 397.12 
L 416.2 354.085625 
Q 416.2 352.085625 414.2 352.085625 
L 337.167188 352.085625 
Q 335.167188 352.085625 335.167188 354.085625 
L 335.167188 397.12 
Q 335.167188 399.12 337.167188 399.12 
z
" style="fill: #ffffff; opacity: 0.8; stroke: #cccccc; stroke-linejoin: miter"/>
    </g>
    <g id="PathCollection_4">
     <g>
      <use xlink:href="#mb5d3168c77" x="349.167188" y="361.059062" style="fill: #ff0000; stroke: #000000"/>
     </g>
    </g>
    <g id="text_14">
     <!-- Cluster 1 -->
     <g transform="translate(367.167188 363.684062) scale(0.1 -0.1)">
      <defs>
       <path id="DejaVuSans-43" d="M 4122 4306 
L 4122 3641 
Q 3803 3938 3442 4084 
Q 3081 4231 2675 4231 
Q 1875 4231 1450 3742 
Q 1025 3253 1025 2328 
Q 1025 1406 1450 917 
Q 1875 428 2675 428 
Q 3081 428 3442 575 
Q 3803 722 4122 1019 
L 4122 359 
Q 3791 134 3420 21 
Q 3050 -91 2638 -91 
Q 1578 -91 968 557 
Q 359 1206 359 2328 
Q 359 3453 968 4101 
Q 1578 4750 2638 4750 
Q 3056 4750 3426 4639 
Q 3797 4528 4122 4306 
z
" transform="scale(0.015625)"/>
       <path id="DejaVuSans-6c" d="M 603 4863 
L 1178 4863 
L 1178 0 
L 603 0 
L 603 4863 
z
" transform="scale(0.015625)"/>
       <path id="DejaVuSans-75" d="M 544 1381 
L 544 3500 
L 1119 3500 
L 1119 1403 
Q 1119 906 1312 657 
Q 1506 409 1894 409 
Q 2359 409 2629 706 
Q 2900 1003 2900 1516 
L 2900 3500 
L 3475 3500 
L 3475 0 
L 2900 0 
L 2900 538 
Q 2691 219 2414 64 
Q 2138 -91 1772 -91 
Q 1169 -91 856 284 
Q 544 659 544 1381 
z
M 1991 3584 
L 1991 3584 
z
" transform="scale(0.015625)"/>
       <path id="DejaVuSans-73" d="M 2834 3397 
L 2834 2853 
Q 2591 2978 2328 3040 
Q 2066 3103 1784 3103 
Q 1356 3103 1142 2972 
Q 928 2841 928 2578 
Q 928 2378 1081 2264 
Q 1234 2150 1697 2047 
L 1894 2003 
Q 2506 1872 2764 1633 
Q 3022 1394 3022 966 
Q 3022 478 2636 193 
Q 2250 -91 1575 -91 
Q 1294 -91 989 -36 
Q 684 19 347 128 
L 347 722 
Q 666 556 975 473 
Q 1284 391 1588 391 
Q 1994 391 2212 530 
Q 2431 669 2431 922 
Q 2431 1156 2273 1281 
Q 2116 1406 1581 1522 
L 1381 1569 
Q 847 1681 609 1914 
Q 372 2147 372 2553 
Q 372 3047 722 3315 
Q 1072 3584 1716 3584 
Q 2034 3584 2315 3537 
Q 2597 3491 2834 3397 
z
" transform="scale(0.015625)"/>
       <path id="DejaVuSans-74" d="M 1172 4494 
L 1172 3500 
L 2356 3500 
L 2356 3053 
L 1172 3053 
L 1172 1153 
Q 1172 725 1289 603 
Q 1406 481 1766 481 
L 2356 481 
L 2356 0 
L 1766 0 
Q 1100 0 847 248 
Q 594 497 594 1153 
L 594 3053 
L 172 3053 
L 172 3500 
L 594 3500 
L 594 4494 
L 1172 4494 
z
" transform="scale(0.015625)"/>
       <path id="DejaVuSans-65" d="M 3597 1894 
L 3597 1613 
L 953 1613 
Q 991 1019 1311 708 
Q 1631 397 2203 397 
Q 2534 397 2845 478 
Q 3156 559 3463 722 
L 3463 178 
Q 3153 47 2828 -22 
Q 2503 -91 2169 -91 
Q 1331 -91 842 396 
Q 353 884 353 1716 
Q 353 2575 817 3079 
Q 1281 3584 2069 3584 
Q 2775 3584 3186 3129 
Q 3597 2675 3597 1894 
z
M 3022 2063 
Q 3016 2534 2758 2815 
Q 2500 3097 2075 3097 
Q 1594 3097 1305 2825 
Q 1016 2553 972 2059 
L 3022 2063 
z
" transform="scale(0.015625)"/>
       <path id="DejaVuSans-72" d="M 2631 2963 
Q 2534 3019 2420 3045 
Q 2306 3072 2169 3072 
Q 1681 3072 1420 2755 
Q 1159 2438 1159 1844 
L 1159 0 
L 581 0 
L 581 3500 
L 1159 3500 
L 1159 2956 
Q 1341 3275 1631 3429 
Q 1922 3584 2338 3584 
Q 2397 3584 2469 3576 
Q 2541 3569 2628 3553 
L 2631 2963 
z
" transform="scale(0.015625)"/>
       <path id="DejaVuSans-20" transform="scale(0.015625)"/>
      </defs>
      <use xlink:href="#DejaVuSans-43"/>
      <use xlink:href="#DejaVuSans-6c" x="69.824219"/>
      <use xlink:href="#DejaVuSans-75" x="97.607422"/>
      <use xlink:href="#DejaVuSans-73" x="160.986328"/>
      <use xlink:href="#DejaVuSans-74" x="213.085938"/>
      <use xlink:href="#DejaVuSans-65" x="252.294922"/>
      <use xlink:href="#DejaVuSans-72" x="313.818359"/>
      <use xlink:href="#DejaVuSans-20" x="354.931641"/>
      <use xlink:href="#DejaVuSans-31" x="386.71875"/>
     </g>
    </g>
    <g id="PathCollection_5">
     <g>
      <use xlink:href="#m049296efaf" x="349.167188" y="375.737188" style="fill: #008000; stroke: #000000"/>
     </g>
    </g>
    <g id="text_15">
     <!-- Cluster 2 -->
     <g transform="translate(367.167188 378.362188) scale(0.1 -0.1)">
      <use xlink:href="#DejaVuSans-43"/>
      <use xlink:href="#DejaVuSans-6c" x="69.824219"/>
      <use xlink:href="#DejaVuSans-75" x="97.607422"/>
      <use xlink:href="#DejaVuSans-73" x="160.986328"/>
      <use xlink:href="#DejaVuSans-74" x="213.085938"/>
      <use xlink:href="#DejaVuSans-65" x="252.294922"/>
      <use xlink:href="#DejaVuSans-72" x="313.818359"/>
      <use xlink:href="#DejaVuSans-20" x="354.931641"/>
      <use xlink:href="#DejaVuSans-32" x="386.71875"/>
     </g>
    </g>
    <g id="PathCollection_6">
     <g>
      <use xlink:href="#m7c3e93bbbe" x="349.167188" y="390.415312" style="fill: #ffa500; stroke: #000000"/>
     </g>
    </g>
    <g id="text_16">
     <!-- Cluster 3 -->
     <g transform="translate(367.167188 393.040312) scale(0.1 -0.1)">
      <use xlink:href="#DejaVuSans-43"/>
      <use xlink:href="#DejaVuSans-6c" x="69.824219"/>
      <use xlink:href="#DejaVuSans-75" x="97.607422"/>
      <use xlink:href="#DejaVuSans-73" x="160.986328"/>
      <use xlink:href="#DejaVuSans-74" x="213.085938"/>
      <use xlink:href="#DejaVuSans-65" x="252.294922"/>
      <use xlink:href="#DejaVuSans-72" x="313.818359"/>
      <use xlink:href="#DejaVuSans-20" x="354.931641"/>
      <use xlink:href="#DejaVuSans-33" x="386.71875"/>
     </g>
    </g>
   </g>
  </g>
  <g id="text_17">
   <!-- K-means, init='random' -->
   <g transform="translate(136.903125 17.758125) scale(0.12 -0.12)">
    <defs>
     <path id="DejaVuSans-Bold-4b" d="M 588 4666 
L 1791 4666 
L 1791 2963 
L 3525 4666 
L 4922 4666 
L 2675 2456 
L 5153 0 
L 3647 0 
L 1791 1838 
L 1791 0 
L 588 0 
L 588 4666 
z
" transform="scale(0.015625)"/>
     <path id="DejaVuSans-Bold-2d" d="M 347 2297 
L 2309 2297 
L 2309 1388 
L 347 1388 
L 347 2297 
z
" transform="scale(0.015625)"/>
     <path id="DejaVuSans-Bold-6d" d="M 3781 2919 
Q 3994 3244 4286 3414 
Q 4578 3584 4928 3584 
Q 5531 3584 5847 3212 
Q 6163 2841 6163 2131 
L 6163 0 
L 5038 0 
L 5038 1825 
Q 5041 1866 5042 1909 
Q 5044 1953 5044 2034 
Q 5044 2406 4934 2573 
Q 4825 2741 4581 2741 
Q 4263 2741 4089 2478 
Q 3916 2216 3909 1719 
L 3909 0 
L 2784 0 
L 2784 1825 
Q 2784 2406 2684 2573 
Q 2584 2741 2328 2741 
Q 2006 2741 1831 2477 
Q 1656 2213 1656 1722 
L 1656 0 
L 531 0 
L 531 3500 
L 1656 3500 
L 1656 2988 
Q 1863 3284 2130 3434 
Q 2397 3584 2719 3584 
Q 3081 3584 3359 3409 
Q 3638 3234 3781 2919 
z
" transform="scale(0.015625)"/>
     <path id="DejaVuSans-Bold-65" d="M 4031 1759 
L 4031 1441 
L 1416 1441 
Q 1456 1047 1700 850 
Q 1944 653 2381 653 
Q 2734 653 3104 758 
Q 3475 863 3866 1075 
L 3866 213 
Q 3469 63 3072 -14 
Q 2675 -91 2278 -91 
Q 1328 -91 801 392 
Q 275 875 275 1747 
Q 275 2603 792 3093 
Q 1309 3584 2216 3584 
Q 3041 3584 3536 3087 
Q 4031 2591 4031 1759 
z
M 2881 2131 
Q 2881 2450 2695 2645 
Q 2509 2841 2209 2841 
Q 1884 2841 1681 2658 
Q 1478 2475 1428 2131 
L 2881 2131 
z
" transform="scale(0.015625)"/>
     <path id="DejaVuSans-Bold-61" d="M 2106 1575 
Q 1756 1575 1579 1456 
Q 1403 1338 1403 1106 
Q 1403 894 1545 773 
Q 1688 653 1941 653 
Q 2256 653 2472 879 
Q 2688 1106 2688 1447 
L 2688 1575 
L 2106 1575 
z
M 3816 1997 
L 3816 0 
L 2688 0 
L 2688 519 
Q 2463 200 2181 54 
Q 1900 -91 1497 -91 
Q 953 -91 614 226 
Q 275 544 275 1050 
Q 275 1666 698 1953 
Q 1122 2241 2028 2241 
L 2688 2241 
L 2688 2328 
Q 2688 2594 2478 2717 
Q 2269 2841 1825 2841 
Q 1466 2841 1156 2769 
Q 847 2697 581 2553 
L 581 3406 
Q 941 3494 1303 3539 
Q 1666 3584 2028 3584 
Q 2975 3584 3395 3211 
Q 3816 2838 3816 1997 
z
" transform="scale(0.015625)"/>
     <path id="DejaVuSans-Bold-6e" d="M 4056 2131 
L 4056 0 
L 2931 0 
L 2931 347 
L 2931 1631 
Q 2931 2084 2911 2256 
Q 2891 2428 2841 2509 
Q 2775 2619 2662 2680 
Q 2550 2741 2406 2741 
Q 2056 2741 1856 2470 
Q 1656 2200 1656 1722 
L 1656 0 
L 538 0 
L 538 3500 
L 1656 3500 
L 1656 2988 
Q 1909 3294 2193 3439 
Q 2478 3584 2822 3584 
Q 3428 3584 3742 3212 
Q 4056 2841 4056 2131 
z
" transform="scale(0.015625)"/>
     <path id="DejaVuSans-Bold-73" d="M 3272 3391 
L 3272 2541 
Q 2913 2691 2578 2766 
Q 2244 2841 1947 2841 
Q 1628 2841 1473 2761 
Q 1319 2681 1319 2516 
Q 1319 2381 1436 2309 
Q 1553 2238 1856 2203 
L 2053 2175 
Q 2913 2066 3209 1816 
Q 3506 1566 3506 1031 
Q 3506 472 3093 190 
Q 2681 -91 1863 -91 
Q 1516 -91 1145 -36 
Q 775 19 384 128 
L 384 978 
Q 719 816 1070 734 
Q 1422 653 1784 653 
Q 2113 653 2278 743 
Q 2444 834 2444 1013 
Q 2444 1163 2330 1236 
Q 2216 1309 1875 1350 
L 1678 1375 
Q 931 1469 631 1722 
Q 331 1975 331 2491 
Q 331 3047 712 3315 
Q 1094 3584 1881 3584 
Q 2191 3584 2531 3537 
Q 2872 3491 3272 3391 
z
" transform="scale(0.015625)"/>
     <path id="DejaVuSans-Bold-2c" d="M 653 1209 
L 1778 1209 
L 1778 256 
L 1006 -909 
L 341 -909 
L 653 256 
L 653 1209 
z
" transform="scale(0.015625)"/>
     <path id="DejaVuSans-Bold-20" transform="scale(0.015625)"/>
     <path id="DejaVuSans-Bold-69" d="M 538 3500 
L 1656 3500 
L 1656 0 
L 538 0 
L 538 3500 
z
M 538 4863 
L 1656 4863 
L 1656 3950 
L 538 3950 
L 538 4863 
z
" transform="scale(0.015625)"/>
     <path id="DejaVuSans-Bold-74" d="M 1759 4494 
L 1759 3500 
L 2913 3500 
L 2913 2700 
L 1759 2700 
L 1759 1216 
Q 1759 972 1856 886 
Q 1953 800 2241 800 
L 2816 800 
L 2816 0 
L 1856 0 
Q 1194 0 917 276 
Q 641 553 641 1216 
L 641 2700 
L 84 2700 
L 84 3500 
L 641 3500 
L 641 4494 
L 1759 4494 
z
" transform="scale(0.015625)"/>
     <path id="DejaVuSans-Bold-3d" d="M 678 3084 
L 4684 3084 
L 4684 2350 
L 678 2350 
L 678 3084 
z
M 678 1663 
L 4684 1663 
L 4684 922 
L 678 922 
L 678 1663 
z
" transform="scale(0.015625)"/>
     <path id="DejaVuSans-Bold-27" d="M 1350 4666 
L 1350 2931 
L 609 2931 
L 609 4666 
L 1350 4666 
z
" transform="scale(0.015625)"/>
     <path id="DejaVuSans-Bold-72" d="M 3138 2547 
Q 2991 2616 2845 2648 
Q 2700 2681 2553 2681 
Q 2122 2681 1889 2404 
Q 1656 2128 1656 1613 
L 1656 0 
L 538 0 
L 538 3500 
L 1656 3500 
L 1656 2925 
Q 1872 3269 2151 3426 
Q 2431 3584 2822 3584 
Q 2878 3584 2943 3579 
Q 3009 3575 3134 3559 
L 3138 2547 
z
" transform="scale(0.015625)"/>
     <path id="DejaVuSans-Bold-64" d="M 2919 2988 
L 2919 4863 
L 4044 4863 
L 4044 0 
L 2919 0 
L 2919 506 
Q 2688 197 2409 53 
Q 2131 -91 1766 -91 
Q 1119 -91 703 423 
Q 288 938 288 1747 
Q 288 2556 703 3070 
Q 1119 3584 1766 3584 
Q 2128 3584 2408 3439 
Q 2688 3294 2919 2988 
z
M 2181 722 
Q 2541 722 2730 984 
Q 2919 1247 2919 1747 
Q 2919 2247 2730 2509 
Q 2541 2772 2181 2772 
Q 1825 2772 1636 2509 
Q 1447 2247 1447 1747 
Q 1447 1247 1636 984 
Q 1825 722 2181 722 
z
" transform="scale(0.015625)"/>
     <path id="DejaVuSans-Bold-6f" d="M 2203 2784 
Q 1831 2784 1636 2517 
Q 1441 2250 1441 1747 
Q 1441 1244 1636 976 
Q 1831 709 2203 709 
Q 2569 709 2762 976 
Q 2956 1244 2956 1747 
Q 2956 2250 2762 2517 
Q 2569 2784 2203 2784 
z
M 2203 3584 
Q 3106 3584 3614 3096 
Q 4122 2609 4122 1747 
Q 4122 884 3614 396 
Q 3106 -91 2203 -91 
Q 1297 -91 786 396 
Q 275 884 275 1747 
Q 275 2609 786 3096 
Q 1297 3584 2203 3584 
z
" transform="scale(0.015625)"/>
    </defs>
    <use xlink:href="#DejaVuSans-Bold-4b"/>
    <use xlink:href="#DejaVuSans-Bold-2d" x="68.740234"/>
    <use xlink:href="#DejaVuSans-Bold-6d" x="110.244141"/>
    <use xlink:href="#DejaVuSans-Bold-65" x="214.443359"/>
    <use xlink:href="#DejaVuSans-Bold-61" x="282.265625"/>
    <use xlink:href="#DejaVuSans-Bold-6e" x="349.746094"/>
    <use xlink:href="#DejaVuSans-Bold-73" x="420.9375"/>
    <use xlink:href="#DejaVuSans-Bold-2c" x="480.458984"/>
    <use xlink:href="#DejaVuSans-Bold-20" x="518.447266"/>
    <use xlink:href="#DejaVuSans-Bold-69" x="553.261719"/>
    <use xlink:href="#DejaVuSans-Bold-6e" x="587.539062"/>
    <use xlink:href="#DejaVuSans-Bold-69" x="658.730469"/>
    <use xlink:href="#DejaVuSans-Bold-74" x="693.007812"/>
    <use xlink:href="#DejaVuSans-Bold-3d" x="740.810547"/>
    <use xlink:href="#DejaVuSans-Bold-27" x="824.599609"/>
    <use xlink:href="#DejaVuSans-Bold-72" x="855.214844"/>
    <use xlink:href="#DejaVuSans-Bold-61" x="904.53125"/>
    <use xlink:href="#DejaVuSans-Bold-6e" x="972.011719"/>
    <use xlink:href="#DejaVuSans-Bold-64" x="1043.203125"/>
    <use xlink:href="#DejaVuSans-Bold-6f" x="1114.785156"/>
    <use xlink:href="#DejaVuSans-Bold-6d" x="1183.486328"/>
    <use xlink:href="#DejaVuSans-Bold-27" x="1287.685547"/>
   </g>
  </g>
 </g>
 <defs>
  <clipPath id="p3865075f2a">
   <rect x="32.56" y="50.64" width="388.64" height="353.48"/>
  </clipPath>
 </defs>
</svg>
